<?xml version="1.0" encoding="utf-8"?>
<!-- Generator: Adobe Illustrator 26.0.1, SVG Export Plug-In . SVG Version: 6.00 Build 0)  -->
<svg version="1.1" id="Ebene_1" xmlns="http://www.w3.org/2000/svg" xmlns:xlink="http://www.w3.org/1999/xlink" x="0px" y="0px"
	 viewBox="0 0 631.6 155" style="enable-background:new 0 0 631.6 155;" xml:space="preserve">
<style type="text/css">
	.st0{fill:#00A870;}
	.st1{fill:#232453;}
</style>
<g>
	<path class="st0" d="M152.8,59.2c-0.4-1-1.3-1.7-2.4-1.7l0,0h-30.3v0c-1.4,0-2.6,1.1-2.6,2.6c0,0.3,0.1,0.6,0.2,0.9
		c2.1,5.1,3.3,10.7,3.3,16.6c0,24-19.5,43.5-43.5,43.5S34,101.5,34,77.5C34,53.5,53.5,34,77.5,34c11.1,0,21.3,4.2,28.9,11.1
		c0.5,0.4,1.1,0.7,1.7,0.7c0.7,0,1.2-0.2,1.8-0.7l0,0l0,0l20.5-20.5v0c0.5-0.5,0.8-1.1,0.8-1.8c0-0.8-0.3-1.4-0.9-1.9
		C116.5,7.9,97.9,0,77.5,0C34.7,0,0,34.7,0,77.5C0,120.3,34.7,155,77.5,155S155,120.3,155,77.5C155,67,152.8,59.2,152.8,59.2"/>
	<g>
		<path class="st1" d="M631.6,113.8c0-3.7-1.2-6.8-3.7-9.3c-2.5-2.5-5.6-3.7-9.3-3.7c-3.7,0-6.9,1.3-9.5,4c-2.7,2.6-4,5.8-4,9.5
			c0,3.7,1.3,6.9,4,9.5c2.7,2.6,5.9,4,9.8,4c1.3,0,2.7-0.2,3.9-0.5c1.3-0.3,2.3-0.7,3.1-1.1c0.8-0.4,1.5-0.9,2.3-1.4
			c0.7-0.5,1.2-0.9,1.4-1.1l0.5-0.5l-3.7-4.8l-0.8,0.8c-0.5,0.5-1.3,1.1-2.4,1.6c-1.1,0.5-2.4,0.8-3.7,0.8c-1.9,0-3.4-0.5-4.6-1.5
			c-1.2-1-2-2.2-2.3-3.6h18.8L631.6,113.8z M612.5,111.6c0.4-1.4,1.2-2.6,2.2-3.4c1.1-0.9,2.4-1.3,3.9-1.3c1.5,0,2.8,0.4,3.8,1.3
			c1,0.9,1.7,2,2,3.4H612.5z"/>
		<path class="st1" d="M597.5,113.1c-1.2-0.5-2.4-0.9-3.5-1.3c-1.2-0.4-2.2-0.8-3-1.2c-0.8-0.4-1.2-1-1.2-1.7c0-0.6,0.3-1,0.9-1.5
			c0.6-0.4,1.3-0.6,2.3-0.6c0.8,0,1.5,0.2,2.3,0.6c0.7,0.4,1.2,0.7,1.5,0.9c0.2,0.2,0.4,0.4,0.5,0.6l3.7-4.2l-0.9-1
			c-0.6-0.6-1.6-1.3-3.1-2c-1.5-0.7-3.2-1-5-1c-2.8,0-5.2,0.8-7.2,2.5c-1.9,1.7-2.9,3.6-2.9,5.7c0,1.6,0.4,2.9,1.2,4
			c0.8,1.1,1.8,1.8,3,2.3c1.2,0.5,2.3,0.9,3.5,1.3c1.2,0.4,2.2,0.8,3,1.2c0.8,0.5,1.2,1.1,1.2,1.8c0,0.7-0.3,1.3-0.9,1.7
			c-0.6,0.4-1.4,0.7-2.6,0.7c-1,0-2-0.3-3-0.8c-1-0.5-1.6-1-1.9-1.3c-0.3-0.3-0.5-0.6-0.7-0.8l-4,4l0.4,0.5c0.3,0.3,0.7,0.7,1.3,1.2
			c0.6,0.5,1.3,0.9,2,1.4c0.8,0.5,1.8,0.9,3,1.2c1.2,0.3,2.6,0.5,3.9,0.5c3.2,0,5.7-0.8,7.6-2.4c1.8-1.6,2.8-3.5,2.8-5.8
			c0-1.6-0.4-3-1.2-4.1C599.7,114.4,598.7,113.6,597.5,113.1"/>
		<path class="st1" d="M573.4,113.1c-1.2-0.5-2.4-0.9-3.5-1.3c-1.2-0.4-2.2-0.8-3-1.2c-0.8-0.4-1.2-1-1.2-1.7c0-0.6,0.3-1,0.9-1.5
			c0.6-0.4,1.3-0.6,2.3-0.6c0.8,0,1.5,0.2,2.3,0.6c0.7,0.4,1.2,0.7,1.5,0.9c0.2,0.2,0.4,0.4,0.5,0.6l3.7-4.2l-0.9-1
			c-0.6-0.6-1.6-1.3-3.1-2c-1.5-0.7-3.2-1-5-1c-2.8,0-5.2,0.8-7.2,2.5c-1.9,1.7-2.9,3.6-2.9,5.7c0,1.6,0.4,2.9,1.2,4
			c0.8,1.1,1.8,1.8,3,2.3c1.2,0.5,2.3,0.9,3.5,1.3c1.2,0.4,2.2,0.8,3,1.2c0.8,0.5,1.2,1.1,1.2,1.8c0,0.7-0.3,1.3-0.9,1.7
			c-0.6,0.4-1.4,0.7-2.6,0.7c-1,0-2-0.3-3-0.8c-1-0.5-1.6-1-1.9-1.3c-0.3-0.3-0.5-0.6-0.7-0.8l-4,4l0.4,0.5c0.3,0.3,0.7,0.7,1.3,1.2
			c0.6,0.5,1.3,0.9,2,1.4c0.8,0.5,1.8,0.9,3,1.2c1.2,0.3,2.6,0.5,3.9,0.5c3.2,0,5.7-0.8,7.6-2.4c1.8-1.6,2.8-3.5,2.8-5.8
			c0-1.6-0.4-3-1.2-4.1C575.6,114.4,574.6,113.6,573.4,113.1"/>
		<path class="st1" d="M541.1,100.8c-1.3,0-2.5,0.2-3.7,0.6c-1.2,0.4-2.2,0.8-2.9,1.2c-0.7,0.4-1.4,0.9-2.1,1.5s-1,1-1.2,1.2
			c-0.2,0.2-0.3,0.4-0.4,0.6l4,4l0.6-0.6c0.4-0.5,1.1-0.9,2-1.4c1-0.4,2-0.7,3.2-0.7c1.4,0,2.5,0.3,3.3,1c0.8,0.7,1.2,1.6,1.2,2.7
			l-8.2,1.5c-2.4,0.4-4.3,1.4-5.6,2.8c-1.4,1.4-2,3.2-2,5.3c0,2.1,0.8,3.8,2.4,5.2c1.6,1.4,3.7,2.2,6.3,2.2c1.3,0,2.6-0.3,3.9-0.9
			c1.2-0.6,2-1,2.4-1.4c0.4-0.4,0.7-0.7,0.9-0.9v2.6h7.1v-16.2c0-3-1-5.4-3.1-7.4C547,101.7,544.3,100.8,541.1,100.8 M545,116.1
			c0,1.8-0.5,3.3-1.4,4.3c-1,1-2.2,1.5-3.9,1.5c-2.3,0-3.4-0.9-3.4-2.6c0-1.6,1-2.6,2.9-2.9l5.8-1.1V116.1z"/>
		<polygon class="st1" points="526.5,101.3 518.3,101.3 509,111.9 509,90.2 501.8,90.2 501.8,127.3 509,127.3 509,120.9 
			512.2,117.2 519.1,127.3 527,127.3 516.7,112.4 		"/>
		<path class="st1" d="M492.9,113.1c-1.2-0.5-2.4-0.9-3.5-1.3c-1.2-0.4-2.2-0.8-3-1.2c-0.8-0.4-1.2-1-1.2-1.7c0-0.6,0.3-1,0.9-1.5
			c0.6-0.4,1.3-0.6,2.3-0.6c0.8,0,1.5,0.2,2.3,0.6c0.7,0.4,1.2,0.7,1.5,0.9c0.2,0.2,0.4,0.4,0.5,0.6l3.7-4.2l-0.9-1
			c-0.6-0.6-1.6-1.3-3.1-2c-1.5-0.7-3.2-1-5-1c-2.8,0-5.2,0.8-7.2,2.5c-1.9,1.7-2.9,3.6-2.9,5.7c0,1.6,0.4,2.9,1.2,4
			c0.8,1.1,1.8,1.8,3,2.3c1.2,0.5,2.3,0.9,3.5,1.3c1.2,0.4,2.2,0.8,3,1.2c0.8,0.5,1.2,1.1,1.2,1.8c0,0.7-0.3,1.3-0.9,1.7
			c-0.6,0.4-1.4,0.7-2.6,0.7c-1,0-2-0.3-3-0.8c-1-0.5-1.6-1-1.9-1.3c-0.3-0.3-0.5-0.6-0.7-0.8l-4,4l0.4,0.5c0.3,0.3,0.7,0.7,1.3,1.2
			c0.6,0.5,1.3,0.9,2,1.4c0.8,0.5,1.8,0.9,3,1.2c1.2,0.3,2.6,0.5,3.9,0.5c3.2,0,5.7-0.8,7.6-2.4c1.8-1.6,2.8-3.5,2.8-5.8
			c0-1.6-0.4-3-1.2-4.1C495.1,114.4,494.1,113.6,492.9,113.1"/>
		<path class="st1" d="M471.2,121.3c-0.4,0.1-0.9,0.1-1.4,0.1c-0.9,0-1.7-0.3-2.3-0.9c-0.6-0.6-0.9-1.3-0.9-2.1v-10.3h5.3v-6.4h-5.3
			v-8.2h-6.4v4.8c0,1-0.3,1.8-0.9,2.5c-0.6,0.6-1.3,1-2.1,1H455v6.4h4.5v10.6c0,6,2.7,9,8.2,9c1.8,0,3.4-0.2,4.8-0.8v-6.1l-0.3,0.1
			C471.9,121.1,471.6,121.2,471.2,121.3"/>
		<g>
			<rect x="442.8" y="101.3" class="st1" width="7.2" height="26"/>
			<path class="st1" d="M446.1,90c-1.2,0-2.1,0.4-2.9,1.1s-1.1,1.7-1.1,2.9c0,1.2,0.4,2.2,1.1,2.9c0.7,0.7,1.7,1.1,2.9,1.1
				c1.3,0,2.3-0.4,3.1-1.1c0.8-0.7,1.1-1.7,1.1-2.9c0-1.2-0.4-2.2-1.1-2.9C448.5,90.3,447.5,90,446.1,90"/>
		</g>
		<path class="st1" d="M424.6,100.8c-3.7,0-6.9,1.3-9.5,4c-2.7,2.6-4,5.8-4,9.5c0,3.7,1.3,6.9,4,9.5c2.7,2.6,5.9,4,9.8,4
			c1.3,0,2.7-0.2,3.9-0.5c1.3-0.3,2.3-0.7,3.1-1.1c0.8-0.4,1.5-0.9,2.3-1.4c0.7-0.5,1.2-0.9,1.4-1.1l0.5-0.5l-3.7-4.8l-0.8,0.8
			c-0.5,0.5-1.3,1.1-2.4,1.6c-1.1,0.5-2.4,0.8-3.7,0.8c-1.9,0-3.4-0.5-4.6-1.5c-1.2-1-2-2.2-2.3-3.6h18.8l0.3-2.9
			c0-3.7-1.2-6.8-3.7-9.3C431.3,102,428.3,100.8,424.6,100.8 M418.4,111.6c0.4-1.4,1.2-2.6,2.2-3.4c1.1-0.9,2.4-1.3,3.9-1.3
			c1.5,0,2.8,0.4,3.8,1.3c1,0.9,1.7,2,2,3.4H418.4z"/>
		<path class="st1" d="M396,100.8c-1.4,0-2.8,0.3-4.1,1c-1.3,0.7-2.1,1.2-2.5,1.6c-0.4,0.4-0.7,0.7-0.9,1V90.2h-7.2v37.1h7.2v-13.5
			c0-2,0.5-3.5,1.4-4.5c0.9-1.1,2.2-1.6,3.9-1.6c1.5,0,2.7,0.5,3.6,1.5c0.9,1,1.4,2.3,1.4,3.8v14.3h7.1v-15.1c0-3.5-0.9-6.3-2.8-8.3
			C401.3,101.8,398.9,100.8,396,100.8"/>
		<path class="st1" d="M367.4,104.5l-0.8-1c-0.5-0.6-1.4-1.2-2.7-1.8c-1.3-0.6-2.7-0.9-4.2-0.9c-3.4,0-6.3,1.3-8.8,3.9
			c-2.5,2.6-3.7,5.8-3.7,9.6c0,3.8,1.2,7,3.7,9.6c2.5,2.6,5.4,3.9,8.8,3.9c0.9,0,1.9-0.1,2.7-0.4c0.9-0.3,1.6-0.6,2.1-0.9
			c0.6-0.3,1.1-0.7,1.5-1.1c0.5-0.4,0.8-0.7,0.9-0.9c0.1-0.2,0.3-0.3,0.3-0.4v3.2h7.1V90.2h-7.1V104.5z M365.6,119.4
			c-1.2,1.3-2.7,2-4.5,2c-1.8,0-3.3-0.7-4.5-2c-1.2-1.3-1.9-3.1-1.9-5.1c0-2.1,0.6-3.8,1.9-5.1c1.2-1.3,2.7-2,4.5-2
			c1.8,0,3.3,0.7,4.5,2c1.2,1.3,1.9,3,1.9,5.1C367.4,116.4,366.8,118.1,365.6,119.4"/>
		<path class="st1" d="M332.2,100.8c-1.4,0-2.8,0.3-4.1,1s-2.1,1.2-2.5,1.6c-0.4,0.4-0.7,0.7-0.9,1v-3.2h-7.1v26h7.1v-13.5
			c0-2,0.5-3.5,1.4-4.5c1-1.1,2.2-1.6,3.9-1.6c1.5,0,2.7,0.5,3.6,1.5c0.9,1,1.4,2.3,1.4,3.8v14.3h7.1v-15.1c0-3.5-0.9-6.3-2.8-8.3
			C337.6,101.8,335.2,100.8,332.2,100.8"/>
		<path class="st1" d="M303.6,115.1c0,2-0.5,3.5-1.4,4.5c-1,1.1-2.2,1.6-3.9,1.6c-1.4,0-2.7-0.5-3.6-1.4c-1-0.9-1.4-2.1-1.4-3.6
			v-14.9h-7.1v15.6c0,3.3,0.9,6,2.8,8c1.9,2,4.3,3,7.3,3c1.4,0,2.8-0.3,4.1-0.9c1.3-0.6,2.1-1,2.5-1.4c0.4-0.4,0.7-0.7,0.9-0.9v2.6
			h7.1v-26h-7.1V115.1z"/>
		<path class="st1" d="M276.9,113.1c-1.2-0.5-2.4-0.9-3.5-1.3c-1.2-0.4-2.2-0.8-3-1.2c-0.8-0.4-1.2-1-1.2-1.7c0-0.6,0.3-1,0.9-1.5
			c0.6-0.4,1.3-0.6,2.3-0.6c0.8,0,1.5,0.2,2.3,0.6c0.7,0.4,1.2,0.7,1.5,0.9c0.2,0.2,0.4,0.4,0.5,0.6l3.7-4.2l-0.9-1
			c-0.6-0.6-1.6-1.3-3.1-2c-1.5-0.7-3.2-1-5-1c-2.8,0-5.2,0.8-7.2,2.5c-1.9,1.7-2.9,3.6-2.9,5.7c0,1.6,0.4,2.9,1.2,4
			c0.8,1.1,1.8,1.8,3,2.3c1.2,0.5,2.3,0.9,3.5,1.3c1.2,0.4,2.2,0.8,3,1.2c0.8,0.5,1.2,1.1,1.2,1.8c0,0.7-0.3,1.3-0.9,1.7
			c-0.6,0.4-1.4,0.7-2.6,0.7c-1,0-2-0.3-3-0.8c-1-0.5-1.6-1-1.9-1.3c-0.3-0.3-0.5-0.6-0.7-0.8l-4,4l0.4,0.5c0.3,0.3,0.7,0.7,1.3,1.2
			c0.6,0.5,1.3,0.9,2,1.4c0.8,0.5,1.8,0.9,3,1.2c1.2,0.3,2.6,0.5,3.9,0.5c3.2,0,5.7-0.8,7.6-2.4c1.8-1.6,2.8-3.5,2.8-5.8
			c0-1.6-0.4-3-1.2-4.1C279.1,114.4,278.1,113.6,276.9,113.1"/>
		<path class="st1" d="M244.1,100.8c-3.7,0-6.9,1.3-9.5,4c-2.7,2.6-4,5.8-4,9.5c0,3.7,1.3,6.9,4,9.5c2.7,2.6,5.9,4,9.8,4
			c1.3,0,2.7-0.2,3.9-0.5c1.3-0.3,2.3-0.7,3.1-1.1c0.8-0.4,1.5-0.9,2.3-1.4c0.7-0.5,1.2-0.9,1.4-1.1l0.5-0.5l-3.7-4.8l-0.8,0.8
			c-0.5,0.5-1.3,1.1-2.4,1.6c-1.1,0.5-2.4,0.8-3.7,0.8c-1.9,0-3.4-0.5-4.6-1.5c-1.2-1-2-2.2-2.3-3.6h18.8l0.3-2.9
			c0-3.7-1.2-6.8-3.7-9.3C250.9,102,247.8,100.8,244.1,100.8 M238,111.6c0.4-1.4,1.2-2.6,2.2-3.4c1.1-0.9,2.4-1.3,3.9-1.3
			c1.5,0,2.8,0.4,3.8,1.3c1,0.9,1.7,2,2,3.4H238z"/>
		<path class="st1" d="M210.7,113h6.6v5l-0.8,0.7c-0.6,0.5-1.5,1-2.9,1.5c-1.4,0.5-2.9,0.7-4.5,0.7c-3.5,0-6.4-1.2-8.7-3.5
			c-2.3-2.3-3.5-5.2-3.5-8.7s1.2-6.4,3.5-8.7c2.3-2.3,5.2-3.5,8.7-3.5c1.3,0,2.5,0.2,3.7,0.6c1.2,0.4,2.2,0.8,2.9,1.3
			c0.7,0.5,1.4,1,2.1,1.6c0,0,0.1,0.1,0.1,0.1L223,95c-0.3-0.3-0.6-0.5-0.9-0.8c-0.9-0.7-1.9-1.4-3-2.2c-1.1-0.7-2.6-1.3-4.3-1.8
			c-1.8-0.5-3.6-0.8-5.6-0.8c-5.7,0-10.4,1.9-14.3,5.7c-3.9,3.8-5.8,8.3-5.8,13.7s1.9,9.9,5.8,13.7c3.9,3.8,8.7,5.7,14.3,5.7
			c2,0,3.9-0.3,5.7-0.8c1.9-0.5,3.4-1.1,4.5-1.7c1.1-0.6,2.2-1.4,3.3-2.2c1-0.8,1.7-1.4,2-1.7c0.3-0.3,0.5-0.6,0.7-0.8v-13.8h-14.6
			V113z"/>
	</g>
	<g>
		<path class="st1" d="M561.6,71.1c0.2-0.2,0.4-0.4,0.5-0.6l-3.4-3.4l-0.8,1c-0.5,0.6-1.4,1.3-2.7,2c-1.3,0.7-2.7,1-4.2,1
			c-2.1,0-3.8-0.7-5.3-2c-1.5-1.3-2.4-2.9-2.7-4.7h19.9l0.3-2.6c0-3.6-1.2-6.5-3.6-8.9c-2.4-2.4-5.3-3.6-8.9-3.6
			c-3.6,0-6.6,1.3-9.2,3.8c-2.5,2.5-3.8,5.6-3.8,9.2c0,3.7,1.3,6.9,3.9,9.5c2.6,2.6,5.7,4,9.3,4c1.3,0,2.7-0.2,3.9-0.6
			c1.3-0.4,2.3-0.8,3.1-1.3c0.8-0.5,1.5-1,2.3-1.6C560.9,71.8,561.4,71.3,561.6,71.1 M545.8,55.5c1.3-1.1,2.9-1.7,4.8-1.7
			c1.9,0,3.6,0.6,4.9,1.7c1.3,1.1,2.1,2.6,2.4,4.4h-14.7C543.6,58.1,544.5,56.6,545.8,55.5"/>
		<path class="st1" d="M513.8,61.5c0-2.3,0.6-4.2,1.8-5.5c1.2-1.3,2.8-2,4.8-2c1.7,0,3.2,0.6,4.4,1.8c1.2,1.2,1.7,2.7,1.7,4.6v14.8
			h5.3V60.4c0-3.4-1-6.1-2.9-8.1c-1.9-2-4.4-3-7.5-3c-0.9,0-1.8,0.1-2.6,0.3c-0.9,0.2-1.6,0.5-2.1,0.8c-0.6,0.3-1.1,0.6-1.6,1
			c-0.5,0.4-0.8,0.6-1,0.8c-0.2,0.2-0.3,0.3-0.3,0.3V38.2h-5.3v37.1h5.3V61.5z"/>
		<path class="st1" d="M498.8,68c-0.5,0.6-1.4,1.3-2.5,2c-1.2,0.7-2.4,1-3.8,1c-2.2,0-4-0.8-5.6-2.5c-1.6-1.6-2.4-3.6-2.4-6
			s0.8-4.4,2.4-6c1.6-1.6,3.4-2.5,5.6-2.5c1.3,0,2.6,0.3,3.8,1c1.2,0.7,1.9,1.2,2.3,1.6c0.4,0.4,0.6,0.7,0.8,1l3.4-3.4l-1.1-1.2
			c-0.7-0.8-2-1.7-3.7-2.5c-1.7-0.9-3.6-1.3-5.5-1.3c-3.6,0-6.7,1.3-9.3,4c-2.6,2.6-3.9,5.7-3.9,9.3c0,3.6,1.3,6.7,3.9,9.3
			c2.6,2.6,5.7,3.9,9.3,3.9c1.2,0,2.4-0.2,3.6-0.6c1.2-0.4,2.2-0.8,3-1.3c0.8-0.5,1.5-1,2.2-1.6c0.7-0.6,1.1-1,1.3-1.3
			c0.2-0.2,0.4-0.4,0.5-0.6l-3.4-3.4L498.8,68z"/>
		<path class="st1" d="M471.6,62c-1-0.5-2-0.9-3.1-1.3c-1.1-0.4-2.2-0.7-3.1-1c-1-0.3-1.8-0.6-2.4-1.1c-0.6-0.5-1-1.1-1-1.9
			c0-0.7,0.3-1.3,1-1.9c0.7-0.5,1.6-0.8,2.7-0.8c0.8,0,1.7,0.2,2.5,0.6c0.8,0.4,1.4,0.7,1.7,1c0.3,0.2,0.5,0.4,0.6,0.6l3.4-3.4
			l-0.3-0.4c-0.2-0.2-0.5-0.5-1-0.8c-0.5-0.4-1-0.7-1.6-1c-0.6-0.3-1.4-0.6-2.3-0.9c-1-0.2-1.9-0.4-3-0.4c-2.6,0-4.7,0.8-6.4,2.3
			c-1.7,1.5-2.6,3.2-2.6,5.2c0,1.4,0.3,2.6,1,3.6c0.6,1,1.4,1.8,2.4,2.2c1,0.5,2,0.9,3.1,1.3c1.1,0.4,2.2,0.7,3.1,1
			c1,0.3,1.8,0.6,2.4,1.1c0.6,0.5,1,1.1,1,1.9c0,1-0.4,1.7-1.1,2.3c-0.7,0.6-1.8,0.9-3.2,0.9c-1.2,0-2.3-0.3-3.4-0.9
			c-1.1-0.6-1.8-1-2.2-1.4c-0.3-0.4-0.6-0.7-0.8-0.9l-3.4,3.4l0.4,0.5c0.2,0.3,0.6,0.7,1.2,1.1c0.5,0.4,1.2,0.9,1.9,1.3
			c0.7,0.4,1.7,0.8,2.8,1.1c1.1,0.3,2.3,0.5,3.6,0.5c2.8,0,5.1-0.8,6.9-2.3c1.8-1.6,2.7-3.4,2.7-5.6c0-1.4-0.3-2.6-1-3.6
			C473.4,63.2,472.6,62.5,471.6,62"/>
		<g>
			<rect x="444.7" y="49.8" class="st1" width="5.3" height="25.4"/>
			<path class="st1" d="M447.4,45.4c0.9,0,1.7-0.3,2.3-0.9c0.6-0.6,0.9-1.4,0.9-2.3c0-0.9-0.3-1.7-0.9-2.3c-0.6-0.6-1.4-0.9-2.3-0.9
				c-0.9,0-1.7,0.3-2.3,0.9c-0.6,0.6-0.9,1.4-0.9,2.3c0,0.9,0.3,1.7,0.9,2.3C445.7,45.1,446.5,45.4,447.4,45.4"/>
		</g>
		<path class="st1" d="M419.1,61.5c0-2.3,0.6-4.2,1.8-5.5c1.2-1.3,2.8-2,4.8-2c1.7,0,3.2,0.6,4.4,1.8c1.2,1.2,1.7,2.7,1.7,4.6v14.8
			h5.3V60.4c0-3.4-1-6.1-2.9-8.1c-1.9-2-4.4-3-7.5-3c-0.9,0-1.8,0.1-2.6,0.3c-0.9,0.2-1.6,0.5-2.1,0.8c-0.6,0.3-1.1,0.6-1.6,1
			c-0.5,0.4-0.8,0.6-1,0.8s-0.3,0.3-0.3,0.3V38.2h-5.3v37.1h5.3V61.5z"/>
		<path class="st1" d="M404,68c-0.5,0.6-1.4,1.3-2.5,2c-1.2,0.7-2.4,1-3.8,1c-2.2,0-4-0.8-5.6-2.5c-1.6-1.6-2.4-3.6-2.4-6
			s0.8-4.4,2.4-6c1.6-1.6,3.4-2.5,5.6-2.5c1.3,0,2.6,0.3,3.8,1c1.2,0.7,1.9,1.2,2.3,1.6c0.4,0.4,0.6,0.7,0.8,1l3.4-3.4l-1.1-1.2
			c-0.7-0.8-2-1.7-3.7-2.5c-1.7-0.9-3.6-1.3-5.5-1.3c-3.6,0-6.7,1.3-9.3,4c-2.6,2.6-3.9,5.7-3.9,9.3c0,3.6,1.3,6.7,3.9,9.3
			c2.6,2.6,5.7,3.9,9.3,3.9c1.2,0,2.4-0.2,3.6-0.6c1.2-0.4,2.2-0.8,3-1.3c0.8-0.5,1.5-1,2.2-1.6c0.7-0.6,1.1-1,1.3-1.3
			s0.4-0.4,0.5-0.6l-3.4-3.4L404,68z"/>
		<g>
			<path class="st1" d="M375.7,39c-0.9,0-1.7,0.3-2.3,0.9c-0.6,0.6-0.9,1.4-0.9,2.3c0,0.9,0.3,1.7,0.9,2.3c0.6,0.6,1.4,0.9,2.3,0.9
				c0.9,0,1.7-0.3,2.3-0.9c0.6-0.6,0.9-1.4,0.9-2.3c0-0.9-0.3-1.7-0.9-2.3C377.3,39.3,376.6,39,375.7,39"/>
			<rect x="373" y="49.8" class="st1" width="5.3" height="25.4"/>
		</g>
		<path class="st1" d="M358.7,75.2c1.3-0.4,2.3-0.8,3.1-1.3c0.8-0.5,1.5-1,2.3-1.6c0.7-0.6,1.2-1,1.4-1.3c0.2-0.2,0.4-0.4,0.5-0.6
			l-3.4-3.4l-0.8,1c-0.5,0.6-1.4,1.3-2.7,2c-1.3,0.7-2.7,1-4.2,1c-2.1,0-3.8-0.7-5.3-2c-1.5-1.3-2.4-2.9-2.7-4.7h19.9l0.3-2.6
			c0-3.6-1.2-6.5-3.6-8.9c-2.4-2.4-5.3-3.6-8.9-3.6c-3.6,0-6.6,1.3-9.2,3.8c-2.5,2.5-3.8,5.6-3.8,9.2c0,3.7,1.3,6.9,3.9,9.5
			c2.6,2.6,5.7,4,9.3,4C356.1,75.8,357.4,75.6,358.7,75.2 M349.7,55.5c1.3-1.1,2.9-1.7,4.8-1.7c1.9,0,3.6,0.6,4.9,1.7
			c1.3,1.1,2.1,2.6,2.4,4.4H347C347.5,58.1,348.4,56.6,349.7,55.5"/>
		<path class="st1" d="M329.9,61.5c0-2.3,0.6-4.2,1.8-5.5c1.2-1.3,2.8-2,4.8-2c0.9,0,1.7,0.1,2.4,0.3v-5h-1.3
			c-0.9,0-1.8,0.1-2.6,0.3c-0.9,0.2-1.6,0.5-2.1,0.8c-0.6,0.3-1.1,0.6-1.6,1c-0.5,0.4-0.8,0.6-1,0.8l-0.3,0.3v-2.6h-5.3v25.4h5.3
			V61.5z"/>
		<path class="st1" d="M320.4,49.3H319c-0.9,0-1.8,0.1-2.6,0.4c-0.9,0.2-1.6,0.5-2.1,0.8c-0.6,0.3-1.1,0.6-1.6,1
			c-0.5,0.4-0.8,0.6-1,0.8l-0.3,0.3v-2.6H306v25.4h5.3V61.5c0-2.3,0.6-4.2,1.8-5.5c1.2-1.3,2.8-2,4.8-2c0.9,0,1.7,0.1,2.4,0.3V49.3z
			"/>
		<path class="st1" d="M288.1,75.8c1.3,0,2.7-0.2,3.9-0.6c1.3-0.4,2.3-0.8,3.1-1.3c0.8-0.5,1.5-1,2.3-1.6c0.7-0.6,1.2-1,1.4-1.3
			c0.2-0.2,0.4-0.4,0.5-0.6l-3.4-3.4l-0.8,1c-0.5,0.6-1.4,1.3-2.7,2c-1.3,0.7-2.7,1-4.2,1c-2.1,0-3.8-0.7-5.3-2
			c-1.5-1.3-2.4-2.9-2.7-4.7H300l0.3-2.6c0-3.6-1.2-6.5-3.6-8.9c-2.4-2.4-5.3-3.6-8.9-3.6c-3.6,0-6.6,1.3-9.2,3.8
			c-2.5,2.5-3.8,5.6-3.8,9.2c0,3.7,1.3,6.9,3.9,9.5C281.3,74.5,284.5,75.8,288.1,75.8 M283,55.5c1.3-1.1,2.9-1.7,4.8-1.7
			c1.9,0,3.6,0.6,4.9,1.7c1.3,1.1,2.1,2.6,2.4,4.4h-14.7C280.8,58.1,281.6,56.6,283,55.5"/>
		<path class="st1" d="M261,67.8c0,5.3,2.4,7.9,7.4,7.9c1.4,0,2.7-0.2,3.7-0.5v-4.8l-0.4,0.1c-0.2,0.1-0.6,0.2-1,0.3
			c-0.4,0.1-0.9,0.1-1.3,0.1c-0.9,0-1.7-0.3-2.3-0.9c-0.6-0.6-0.9-1.4-0.9-2.3V54.6h5.3v-4.8h-5.3v-8.5h-4.8v5.3
			c0,2.1-0.9,3.2-2.6,3.2h-2.7v4.8h4.8V67.8z"/>
		<path class="st1" d="M243,71c-1.2,0-2.3-0.3-3.4-0.9c-1.1-0.6-1.8-1-2.2-1.4c-0.3-0.4-0.6-0.7-0.8-0.9l-3.4,3.4l0.4,0.5
			c0.2,0.3,0.6,0.7,1.2,1.1c0.5,0.4,1.2,0.9,1.9,1.3c0.7,0.4,1.7,0.8,2.8,1.1c1.1,0.3,2.3,0.5,3.6,0.5c2.8,0,5.1-0.8,6.9-2.3
			c1.8-1.6,2.7-3.4,2.7-5.6c0-1.4-0.3-2.6-1-3.6c-0.6-1-1.4-1.7-2.4-2.2c-1-0.5-2-0.9-3.1-1.3c-1.1-0.4-2.2-0.7-3.1-1
			c-1-0.3-1.8-0.6-2.4-1.1c-0.6-0.5-1-1.1-1-1.9c0-0.7,0.3-1.3,1-1.8c0.7-0.5,1.6-0.8,2.7-0.8c0.8,0,1.7,0.2,2.5,0.6
			c0.8,0.4,1.4,0.7,1.7,1c0.3,0.2,0.5,0.4,0.6,0.6l3.4-3.4l-0.3-0.4c-0.2-0.2-0.5-0.5-1-0.8c-0.5-0.4-1-0.7-1.6-1
			c-0.6-0.3-1.4-0.6-2.3-0.9c-1-0.2-1.9-0.3-3-0.3c-2.6,0-4.7,0.8-6.4,2.3c-1.7,1.5-2.6,3.2-2.6,5.2c0,1.4,0.3,2.6,1,3.6
			c0.6,1,1.4,1.8,2.4,2.2c1,0.5,2,0.9,3.1,1.3c1.1,0.4,2.2,0.7,3.1,1s1.8,0.6,2.4,1.1c0.6,0.5,1,1.1,1,1.8c0,1-0.4,1.7-1.1,2.3
			C245.5,70.7,244.5,71,243,71"/>
		<g>
			<path class="st1" d="M203.6,33.4c0.9,0,1.7-0.3,2.3-0.9c0.6-0.6,0.9-1.4,0.9-2.3c0-0.9-0.3-1.7-0.9-2.3c-0.6-0.6-1.4-0.9-2.3-0.9
				c-0.9,0-1.7,0.3-2.3,0.9c-0.6,0.6-0.9,1.4-0.9,2.3c0,0.9,0.3,1.7,0.9,2.3S202.7,33.4,203.6,33.4"/>
			<path class="st1" d="M221.2,49.9c1.1,2,1.7,4.3,1.7,6.8c0,3.8-1.3,7.1-4,9.8c-2.7,2.7-5.9,4-9.8,4c-3.9,0-7.1-1.3-9.8-4
				c-2.7-2.7-4-5.9-4-9.8s1.3-7.1,4-9.8c2.7-2.7,5.9-4,9.8-4c3.9,0,7.1,1.3,9.8,4c1.4-1.4,2.7-2.7,4-4c-3.7-3.6-8.3-5.3-13.7-5.3
				c-5.5,0-10.2,1.8-14,5.5c-3.8,3.7-5.6,8.2-5.6,13.5c0,5.3,1.9,9.8,5.6,13.5c3.8,3.7,8.4,5.5,14,5.5c5.5,0,10.2-1.8,14-5.5
				c3.8-3.7,5.6-8.2,5.6-13.5c0-2.4-0.4-4.7-1.2-6.8H221.2z"/>
			<path class="st1" d="M214.7,33.4c0.9,0,1.7-0.3,2.3-0.9c0.6-0.6,0.9-1.4,0.9-2.3c0-0.9-0.3-1.7-0.9-2.3c-0.6-0.6-1.4-0.9-2.3-0.9
				c-0.9,0-1.7,0.3-2.3,0.9c-0.6,0.6-0.9,1.4-0.9,2.3c0,0.9,0.3,1.7,0.9,2.3S213.8,33.4,214.7,33.4"/>
		</g>
	</g>
</g>
</svg>
